<svg width="20" height="20" viewBox="0 0 20 20" fill="none" xmlns="http://www.w3.org/2000/svg">
<path d="M3.70384 13.3369L5.72853 11.9222C5.8968 11.8047 6.08656 11.7215 6.28699 11.6773C6.48742 11.6332 6.69458 11.629 6.89664 11.6649C7.0987 11.7008 7.29171 11.7762 7.46464 11.8867C7.63756 11.9973 7.78702 12.1408 7.90447 12.3091L8.37447 12.9828C9.16197 12.4547 10.041 11.7172 10.8788 10.8791C11.7163 10.0416 12.4538 9.16251 12.982 8.37501L12.3088 7.90501C12.1399 7.78815 11.9959 7.63887 11.8852 7.46585C11.7744 7.29284 11.6992 7.09954 11.6638 6.8972C11.6276 6.69504 11.6318 6.48772 11.6761 6.28718C11.7204 6.08664 11.804 5.89686 11.922 5.72876L13.336 3.70439C13.632 3.28126 14.1095 3.02814 14.6126 3.02814C14.7862 3.02807 14.9585 3.05887 15.1213 3.11907C15.3054 3.18667 15.4819 3.27339 15.6479 3.37782L15.9276 3.5747C15.9968 3.6292 16.0626 3.68796 16.1245 3.75064C16.4657 4.09126 16.7076 4.52314 16.8442 5.03314C17.427 7.21751 15.9835 10.521 13.252 13.2522C10.9582 15.546 8.2029 16.971 6.06103 16.971C5.69384 16.971 5.34822 16.9285 5.0329 16.8441C4.52259 16.7078 4.09103 16.466 3.75009 16.1247C3.6879 16.0625 3.62884 15.9975 3.5654 15.9153L3.36853 15.6344C3.26828 15.4724 3.18472 15.3007 3.11915 15.1219C2.88072 14.4781 3.12134 13.7438 3.70384 13.3366V13.3369Z" fill="#D90404"/>
</svg>
